<?xml version="1.0" encoding="UTF-8" standalone="no"?>
<!DOCTYPE svg PUBLIC "-//W3C//DTD SVG 1.1//EN"
 "http://www.w3.org/Graphics/SVG/1.1/DTD/svg11.dtd">
<!-- Generated by graphviz version 2.40.1 (20161225.0304)
 -->
<!-- Title: %0 Pages: 1 -->
<svg width="85pt" height="54pt"
 viewBox="0.00 0.00 85.23 54.40" xmlns="http://www.w3.org/2000/svg" xmlns:xlink="http://www.w3.org/1999/xlink">
<g id="graph0" class="graph" transform="scale(1 1) rotate(0) translate(4 50.4)">
<title>%0</title>
<polygon fill="#ffffff" stroke="transparent" points="-4,4 -4,-50.4 81.2316,-50.4 81.2316,4 -4,4"/>
<text text-anchor="middle" x="38.6158" y="-28" font-family="Roboto Condensed, sans-serif" font-size="16.00" fill="#000000">graphql</text>
<!-- graphql@15.4.0 -->
<g id="node1" class="node">
<title>graphql@15.4.0</title>
<path fill="none" stroke="#000000" d="M70.8804,-19.3011C70.8804,-19.3011 6.3512,-19.3011 6.3512,-19.3011 3.1175,-19.3011 -.1161,-16.0674 -.1161,-12.8337 -.1161,-12.8337 -.1161,-6.3663 -.1161,-6.3663 -.1161,-3.1326 3.1175,.1011 6.3512,.1011 6.3512,.1011 70.8804,.1011 70.8804,.1011 74.1141,.1011 77.3477,-3.1326 77.3477,-6.3663 77.3477,-6.3663 77.3477,-12.8337 77.3477,-12.8337 77.3477,-16.0674 74.1141,-19.3011 70.8804,-19.3011"/>
<text text-anchor="middle" x="38.6158" y="-6.3" font-family="Roboto Condensed, sans-serif" font-size="11.00" fill="#000000">graphql@15.4.0</text>
</g>
</g>
</svg>
